<?xml version="1.0" encoding="UTF-8"?>
<svg id="BackWorkSpace" xmlns="http://www.w3.org/2000/svg" viewBox="0 0 257.95 155.91">
  <defs>
    <style>
      .cls-1 {
        fill: #040000;
      }

      .cls-2 {
        fill: #fff;
      }

      .cls-3, .cls-4 {
        fill: none;
      }

      .cls-5 {
        fill: #716cb0;
        opacity: .8;
      }

      .cls-6 {
        font-family: YuGothic-Light, 'Yu Gothic';
        font-weight: 300;
        letter-spacing: .44em;
      }

      .cls-6, .cls-7, .cls-8, .cls-9 {
        isolation: isolate;
      }

      .cls-6, .cls-10 {
        font-size: 8px;
      }

      .cls-11, .cls-10, .cls-9 {
        fill: #343a79;
      }

      .cls-12 {
        fill: #a5ad7a;
      }

      .cls-13 {
        fill: #c6c184;
      }

      .cls-10, .cls-8 {
        font-family: YuGothic-Bold, 'Yu Gothic';
        font-weight: 700;
      }

      .cls-8 {
        font-size: 24px;
        letter-spacing: .28em;
      }

      .cls-14 {
        fill: #847ca9;
      }

      .cls-9 {
        font-family: YuGothic-Regular, 'Yu Gothic';
        font-size: 14px;
      }

      .cls-15 {
        fill: #9aafd1;
      }

      .cls-16 {
        fill: #8079a3;
      }

      .cls-17 {
        fill: #172643;
      }

      .cls-4 {
        stroke: #e7e5ee;
        stroke-width: .75px;
      }
    </style>
  </defs>
  <g id="_マスク-2" data-name="マスク">
    <rect class="cls-2" x="-11.33" y="-25.61" width="294.59" height="216.17" transform="translate(271.92 164.94) rotate(180)"/>
    <rect class="cls-15" x="171.01" y="134.75" width="140.31" height="140.31" transform="translate(-74.26 230.54) rotate(-45)"/>
    <rect class="cls-17" x="-113.02" y="6.04" width="185.19" height="115.49" transform="translate(-51.08 4.24) rotate(-45)"/>
    <line class="cls-4" x1="21.78" y1="48.32" x2="170.85" y2="48.32"/>
    <rect class="cls-15" x="-12.44" y="144.14" width="23.54" height="23.54" transform="translate(-110.44 45.19) rotate(-45)"/>
    <rect class="cls-17" x="136.98" y="-50.11" width="100.22" height="100.22" transform="translate(54.8 132.29) rotate(-45)"/>
    <text class="cls-8" transform="translate(22.83 44.53)"><tspan class="cls-13" x="0" y="0">岡本</tspan><tspan class="cls-11" x="61.3" y="0">貴明</tspan></text>
    <text class="cls-6" transform="translate(25.5 55.36)"><tspan class="cls-12" x="0" y="0">okamoto </tspan><tspan class="cls-16" x="59.69" y="0">takaaki</tspan></text>
    <path class="cls-5" d="M32.5,130.33h-.53c-.38,0-.69-.24-.69-.53v-45.68c0-.29.31-.53.69-.53h.53c.38,0,.69.24.69.53v45.68c0,.29-.31.53-.69.53Z"/>
    <text class="cls-9" transform="translate(40.62 96.64)"><tspan x="0" y="0">大同大学</tspan></text>
    <g class="cls-7">
      <path class="cls-14" d="M44.9,109.56v.34h-2.21v-.34h2.21Z"/>
      <path class="cls-14" d="M48.4,108.96s-.02.03-.03.03-.05-.02-.11-.05c-.06-.04-.09-.06-.09-.08,0,0,0-.01,0-.03.2-.43.33-.94.39-1.51,0-.03.02-.04.03-.04s.05,0,.09.02c.08.02.11.03.11.05,0,0,0,.01,0,.02-.07.63-.2,1.16-.4,1.58ZM49.25,111.21v-4.69c0-.49-.02-.83-.05-1.04.11,0,.22.02.32.04.05,0,.07.03.07.05l-.03.13c-.03.12-.05.38-.05.79v4.7l.02,1.42s-.02.05-.05.05h-.2s-.05-.02-.05-.05l.02-1.41ZM49.83,107.32s0-.02,0-.02c0-.01.03-.03.09-.05.05-.02.08-.04.09-.04.01,0,.02.01.03.04.15.4.26.79.32,1.15,0,.01,0,.02,0,.02,0,.02-.04.04-.12.08-.05.02-.08.03-.1.03-.02,0-.03-.02-.03-.05-.05-.39-.15-.77-.29-1.15ZM54.14,108.37h-2.38l-1.14.02s-.05-.02-.05-.05v-.15s.02-.05.05-.05l1.14.02h.88v-.71h-.56l-1.02.02s-.05-.02-.05-.05v-.15s.02-.05.05-.05l1.02.02h.56v-.62h-.7l-1.09.02s-.05-.02-.05-.05v-.15s.02-.05.05-.05l1.09.02h.7v-.11c0-.42-.02-.71-.05-.86.11,0,.22.02.3.04.05.01.08.03.08.06,0,.02-.02.07-.05.14-.03.07-.04.27-.04.62v.11h.98l1.09-.02s.05.02.05.05v.15s-.02.05-.05.05l-1.09-.02h-.98v.62h.73l1.02-.02s.05.02.05.05v.15s-.02.05-.05.05l-1.02-.02h-.73v.71h1.26l1.14-.02s.05.02.05.05v.15s-.02.05-.05.05l-1.14-.02ZM54.49,110v2.02c0,.22-.05.37-.15.45-.11.08-.32.11-.61.11h-.14c-.05,0-.08,0-.09-.02s-.02-.04-.04-.09c-.03-.06-.06-.12-.11-.18.19.02.37.02.53.02s.26-.03.31-.09c.04-.04.06-.13.06-.25v-.77h-2.91v.48l.02.91s-.02.05-.05.05h-.18s-.05-.02-.05-.05l.02-.89v-1.74l-.02-.91s.02-.05.05-.05l.99.02h1.35l.99-.02s.05.02.05.05l-.02.93ZM51.33,109.26v.74h2.91v-.74h-2.91ZM51.33,110.21v.79h2.91v-.79h-2.91Z"/>
      <path class="cls-14" d="M59.07,111.01h-.45v.76l.02.86s-.02.05-.05.05h-.2s-.05-.02-.05-.05l.02-.86v-.76h-.54l-.95.02s-.05-.02-.05-.05v-.16s.02-.05.05-.05l.95.02h.54v-1.08h-.65l-1.01.02s-.05-.02-.05-.05v-.16s.02-.05.05-.05l1.01.02h1.13c.16-.29.31-.62.45-1,.03-.1.05-.2.07-.31.09.03.18.06.25.1.04.02.06.04.06.07s-.02.05-.05.08c-.05.04-.08.09-.11.17-.15.36-.29.66-.42.89h.09l1.01-.02s.05.02.05.05v.16s-.02.05-.05.05l-1.01-.02h-.55v1.08h.45l.94-.02s.05.02.05.05v.16s-.02.05-.05.05l-.94-.02ZM59.17,108.01h-1.46l-1,.02s-.05-.02-.05-.05v-.16s.02-.05.05-.05l1,.02h.65v-1h-.47l-.92.02s-.05-.02-.05-.05v-.16s.02-.05.05-.05l.92.02h.47v-.36c0-.35-.02-.59-.05-.74.12,0,.22.02.32.04.05.01.08.03.08.06,0,.02-.02.07-.05.14-.03.07-.04.24-.04.5v.36h.43l.92-.02s.05.02.05.05v.16s-.02.05-.05.05l-.92-.02h-.43v1h.55l1-.02s.05.02.05.05v.16s-.02.05-.05.05l-1-.02ZM57.34,108.33s-.01-.02-.01-.03c0-.01.03-.03.08-.06.05-.03.08-.04.09-.04s.02.01.04.03c.14.25.27.56.38.93,0,.01,0,.02,0,.03,0,.02-.03.04-.1.07-.05.02-.08.04-.1.04s-.02-.01-.03-.04c-.08-.32-.2-.63-.36-.93ZM61.42,105.97h1.1l.91-.02s.05.02.05.05l-.04.43c-.03.35-.08.65-.14.89-.09.33-.31.49-.68.49-.13,0-.34,0-.62-.02-.05,0-.08-.01-.09-.02,0,0-.02-.04-.03-.08-.02-.07-.04-.13-.06-.17.29.03.56.05.8.05.14,0,.25-.03.31-.1.06-.06.11-.17.15-.32.06-.24.1-.56.11-.97h-2.52v2.32h2.11c.08,0,.13,0,.16-.02s.06-.02.08-.02c.04,0,.09.04.17.11.06.05.09.1.09.13,0,.03-.02.06-.05.08-.04.02-.08.12-.14.3-.26.84-.51,1.49-.78,1.96.37.46.89.92,1.57,1.37-.06.03-.11.07-.16.14-.03.04-.05.06-.06.06-.01,0-.03-.01-.06-.03-.58-.43-1.06-.87-1.43-1.32-.27.43-.61.84-1.01,1.23-.04.04-.06.05-.07.05s-.03-.02-.07-.06-.09-.08-.16-.1c.49-.44.87-.89,1.14-1.34-.46-.63-.8-1.4-1.03-2.31h-.31v2.27l.02,1.59s-.02.05-.05.05h-.2s-.05-.02-.05-.05l.02-1.56v-3.46l-.02-1.59s.02-.05.05-.05l.96.02ZM62.92,108.75h-1.69c.23.85.54,1.55.93,2.1.29-.52.54-1.22.76-2.1Z"/>
      <path class="cls-14" d="M67.58,108.17h2.32c.12,0,.19,0,.21-.02s.04-.02.07-.02c.03,0,.08.04.15.12.07.08.11.14.11.18,0,.05-.02.07-.06.08-.08.02-.18.07-.31.18-.29.22-.73.48-1.32.79-.01.05-.02.17-.02.35v.2h2.25l1.07-.02s.05.02.05.05v.18s-.02.05-.05.05l-1.07-.02h-2.25v1.75c0,.2-.06.35-.19.43-.11.07-.32.1-.64.1-.1,0-.24,0-.4,0-.05,0-.08,0-.09-.02-.01,0-.02-.04-.04-.08-.02-.07-.06-.14-.11-.21.26.03.53.05.82.05.14,0,.24-.02.3-.07.06-.05.09-.14.09-.26v-1.69h-2.27l-1.07.02s-.05-.02-.05-.05v-.18s.02-.05.05-.05l1.07.02h2.27c0-.45-.02-.74-.05-.88.14.04.25.08.33.12.5-.27.94-.57,1.3-.88h-2.46l-1.06.02s-.05-.02-.05-.05v-.17s.02-.05.05-.05l1.06.02ZM65.67,107.25v1.31s-.02.05-.05.05h-.18s-.05-.02-.05-.05l.02-.83v-.27l-.02-.41s.02-.05.05-.05l1.15.02h3.3c.24-.33.45-.7.63-1.11.04-.1.07-.21.09-.33.08.03.17.07.25.12.05.03.08.06.08.09,0,.03-.02.05-.05.06-.04.03-.09.09-.14.19-.18.33-.38.66-.59.97h.42l1.16-.02s.05.02.05.05l-.02.37v.3l.02.83s-.02.05-.05.05h-.18s-.05-.02-.05-.05v-1.31h-5.86ZM66.21,105.8s-.01-.02-.01-.02c0,0,.03-.03.09-.07.05-.03.08-.05.1-.05s.03,0,.04.03c.23.26.46.58.68.95,0,.01.01.02.01.03,0,.01-.04.04-.11.08-.06.03-.1.05-.11.05s-.02-.01-.04-.04c-.14-.3-.36-.62-.66-.96ZM68.11,105.64s-.02-.02-.02-.03.03-.03.08-.07c.05-.03.08-.04.09-.04s.03,0,.04.03c.22.3.4.62.54.95,0,.02.01.03.01.04,0,.01-.04.04-.11.08-.05.03-.09.04-.11.04-.01,0-.03-.01-.04-.04-.13-.35-.3-.67-.5-.95Z"/>
      <path class="cls-14" d="M76.46,108.73h-1.79l-1.07.02s-.05-.02-.05-.05v-.18s.02-.05.05-.05l1.07.02h1.31c.2-.4.35-.75.45-1.05.04-.11.06-.24.08-.39.1.03.18.06.25.09.05.02.08.05.08.08,0,.02-.02.06-.06.11-.04.04-.07.11-.11.21-.14.32-.29.64-.46.95h.25l1.07-.02s.05.02.05.05v.18s-.02.05-.05.05l-1.07-.02ZM76.37,106.69h-1.51l-1.02.02s-.05-.02-.05-.05v-.17s.02-.05.05-.05l1.02.02h.62v-.3c0-.33-.02-.57-.06-.7.1,0,.2.02.3.04.05,0,.08.03.08.05,0,.02-.02.06-.05.13-.03.06-.04.22-.04.48v.3h.66l1.02-.02s.05.02.05.05v.17s-.02.05-.05.05l-1.02-.02ZM76.76,112.59s-.05-.02-.05-.05v-.5h-2.27v.53s-.02.05-.05.05h-.17s-.05-.02-.05-.05l.02-1.35v-.61l-.02-.83s.02-.05.05-.05l.88.02h.96l.88-.02s.05.02.05.05l-.02.75v.68l.02,1.34s-.02.05-.05.05h-.18ZM74.41,107.14s0-.02,0-.03c0-.01.03-.03.09-.06.05-.02.08-.03.09-.03s.03.01.04.03c.17.35.3.7.39,1.05,0,.01,0,.02,0,.02,0,.02-.04.04-.11.07-.05.02-.08.03-.1.03-.02,0-.03-.01-.03-.04-.1-.42-.22-.77-.36-1.04ZM74.44,109.97v1.85h2.27v-1.85h-2.27ZM78.23,106.19v4.83l.02,1.59s-.02.05-.05.05h-.18s-.05-.02-.05-.05l.02-1.58v-3.45l-.02-1.59s.02-.05.05-.05l.71.02h1.25c.08,0,.13,0,.16-.02.03-.01.06-.02.07-.02.03,0,.07.03.13.08.07.07.11.11.11.14,0,.04-.02.06-.05.08-.05.02-.1.1-.17.23-.44.84-.84,1.53-1.21,2.05.58.43.98.81,1.2,1.13.17.25.26.52.26.78,0,.37-.15.65-.45.84-.27.17-.65.27-1.13.28-.05,0-.08,0-.09-.02-.01-.01-.02-.04-.04-.09-.02-.06-.05-.11-.09-.15h.12c.95,0,1.42-.3,1.42-.89,0-.27-.11-.53-.32-.79-.21-.25-.6-.61-1.17-1.07.54-.73.99-1.52,1.35-2.35h-1.83Z"/>
      <path class="cls-14" d="M90.4,108.96s-.02.03-.03.03-.05-.02-.11-.05c-.06-.04-.09-.06-.09-.08,0,0,0-.01,0-.03.2-.43.33-.94.39-1.51,0-.03.02-.04.03-.04s.05,0,.09.02c.08.02.11.03.11.05,0,0,0,.01,0,.02-.07.63-.2,1.16-.4,1.58ZM91.25,111.21v-4.69c0-.49-.02-.83-.05-1.04.11,0,.22.02.32.04.05,0,.07.03.07.05l-.03.13c-.03.12-.05.38-.05.79v4.7l.02,1.42s-.02.05-.05.05h-.2s-.05-.02-.05-.05l.02-1.41ZM91.83,107.32s0-.02,0-.02c0-.01.03-.03.09-.05.05-.02.08-.04.09-.04.01,0,.02.01.03.04.15.4.26.79.32,1.15,0,.01,0,.02,0,.02,0,.02-.04.04-.12.08-.05.02-.08.03-.1.03-.02,0-.03-.02-.03-.05-.05-.39-.15-.77-.29-1.15ZM96.14,108.37h-2.38l-1.14.02s-.05-.02-.05-.05v-.15s.02-.05.05-.05l1.14.02h.88v-.71h-.56l-1.02.02s-.05-.02-.05-.05v-.15s.02-.05.05-.05l1.02.02h.56v-.62h-.7l-1.09.02s-.05-.02-.05-.05v-.15s.02-.05.05-.05l1.09.02h.7v-.11c0-.42-.02-.71-.05-.86.11,0,.22.02.3.04.05.01.08.03.08.06,0,.02-.02.07-.05.14-.03.07-.04.27-.04.62v.11h.98l1.09-.02s.05.02.05.05v.15s-.02.05-.05.05l-1.09-.02h-.98v.62h.73l1.02-.02s.05.02.05.05v.15s-.02.05-.05.05l-1.02-.02h-.73v.71h1.26l1.14-.02s.05.02.05.05v.15s-.02.05-.05.05l-1.14-.02ZM96.49,110v2.02c0,.22-.05.37-.15.45-.11.08-.32.11-.61.11h-.14c-.05,0-.08,0-.09-.02s-.02-.04-.04-.09c-.03-.06-.06-.12-.11-.18.19.02.37.02.53.02s.26-.03.31-.09c.04-.04.06-.13.06-.25v-.77h-2.91v.48l.02.91s-.02.05-.05.05h-.18s-.05-.02-.05-.05l.02-.89v-1.74l-.02-.91s.02-.05.05-.05l.99.02h1.35l.99-.02s.05.02.05.05l-.02.93ZM93.33,109.26v.74h2.91v-.74h-2.91ZM93.33,110.21v.79h2.91v-.79h-2.91Z"/>
      <path class="cls-14" d="M101.07,111.01h-.45v.76l.02.86s-.02.05-.05.05h-.2s-.05-.02-.05-.05l.02-.86v-.76h-.54l-.95.02s-.05-.02-.05-.05v-.16s.02-.05.05-.05l.95.02h.54v-1.08h-.65l-1.01.02s-.05-.02-.05-.05v-.16s.02-.05.05-.05l1.01.02h1.13c.16-.29.31-.62.45-1,.03-.1.05-.2.07-.31.09.03.18.06.25.1.04.02.06.04.06.07s-.02.05-.05.08c-.05.04-.08.09-.11.17-.15.36-.29.66-.42.89h.09l1.01-.02s.05.02.05.05v.16s-.02.05-.05.05l-1.01-.02h-.55v1.08h.45l.94-.02s.05.02.05.05v.16s-.02.05-.05.05l-.94-.02ZM101.17,108.01h-1.46l-1,.02s-.05-.02-.05-.05v-.16s.02-.05.05-.05l1,.02h.65v-1h-.47l-.92.02s-.05-.02-.05-.05v-.16s.02-.05.05-.05l.92.02h.47v-.36c0-.35-.02-.59-.05-.74.12,0,.22.02.32.04.05.01.08.03.08.06,0,.02-.02.07-.05.14-.03.07-.04.24-.04.5v.36h.43l.92-.02s.05.02.05.05v.16s-.02.05-.05.05l-.92-.02h-.43v1h.55l1-.02s.05.02.05.05v.16s-.02.05-.05.05l-1-.02ZM99.34,108.33s-.01-.02-.01-.03c0-.01.03-.03.08-.06.05-.03.08-.04.09-.04s.02.01.04.03c.14.25.27.56.38.93,0,.01,0,.02,0,.03,0,.02-.03.04-.1.07-.05.02-.08.04-.1.04s-.02-.01-.03-.04c-.08-.32-.2-.63-.36-.93ZM103.42,105.97h1.1l.91-.02s.05.02.05.05l-.04.43c-.03.35-.08.65-.14.89-.09.33-.31.49-.68.49-.13,0-.34,0-.62-.02-.05,0-.08-.01-.09-.02,0,0-.02-.04-.03-.08-.02-.07-.04-.13-.06-.17.29.03.56.05.8.05.14,0,.25-.03.31-.1.06-.06.11-.17.15-.32.06-.24.1-.56.11-.97h-2.52v2.32h2.11c.08,0,.13,0,.16-.02s.06-.02.08-.02c.04,0,.09.04.17.11.06.05.09.1.09.13,0,.03-.02.06-.05.08-.04.02-.08.12-.14.3-.26.84-.51,1.49-.78,1.96.37.46.89.92,1.57,1.37-.06.03-.11.07-.16.14-.03.04-.05.06-.06.06-.01,0-.03-.01-.06-.03-.58-.43-1.06-.87-1.43-1.32-.27.43-.61.84-1.01,1.23-.04.04-.06.05-.07.05s-.03-.02-.07-.06-.09-.08-.16-.1c.49-.44.87-.89,1.14-1.34-.46-.63-.8-1.4-1.03-2.31h-.31v2.27l.02,1.59s-.02.05-.05.05h-.2s-.05-.02-.05-.05l.02-1.56v-3.46l-.02-1.59s.02-.05.05-.05l.96.02ZM104.92,108.75h-1.69c.23.85.54,1.55.93,2.1.29-.52.54-1.22.76-2.1Z"/>
      <path class="cls-14" d="M110.55,108.42c-.03.9-.2,1.65-.52,2.23-.31.57-.84,1.08-1.59,1.53-.04.03-.08.04-.1.04-.02,0-.03,0-.04-.02-.05-.05-.14-.1-.26-.15.84-.43,1.42-.94,1.72-1.52.31-.6.47-1.3.47-2.11h-1.73c-.23,0-.62.01-1.16.03-.05,0-.09,0-.11-.02-.01-.01-.02-.04-.02-.08-.01-.11-.02-.18-.02-.23.44.02.87.03,1.3.03h3.44c.48,0,.94-.01,1.4-.03.06,0,.09.03.09.09v.15c0,.05-.03.08-.09.08-.49-.02-.96-.02-1.4-.02h-1.38ZM108.19,106.38c.27.02.65.02,1.14.02h2.17c.29,0,.54,0,.74-.02.01,0,.02,0,.03,0,.04,0,.07.03.07.08v.13s0,.07-.02.08c-.01,0-.04.01-.08.01-.28-.01-.69-.02-1.22-.02h-1.68c-.46,0-.8,0-1.04.02-.05,0-.08-.02-.09-.07,0-.05,0-.13,0-.23ZM112.43,105.72l.19-.13s.02-.01.03-.01c0,0,.01,0,.03.01.29.2.57.5.85.91,0,.01.01.02.01.03,0,.01,0,.02-.02.03l-.14.12s-.02.01-.04.01c-.02,0-.03,0-.04-.02-.24-.38-.53-.7-.87-.95ZM113.03,105.27l.15-.12s.02-.02.04-.02c0,0,.02,0,.03.01.36.27.65.58.86.92,0,.01,0,.02,0,.03,0,.02,0,.03-.03.04l-.13.11s-.02,0-.03,0c-.02,0-.03,0-.04-.02-.22-.38-.51-.7-.86-.96Z"/>
      <path class="cls-14" d="M119.74,107.88h.29c.59,0,1.05,0,1.39-.02.06,0,.09.03.09.08v.14c0,.05-.03.08-.08.08-.25-.01-.53-.02-.84-.02h-.85c0,1.13-.19,2.01-.54,2.62-.21.37-.52.7-.91,1-.35.25-.73.45-1.16.59-.04.01-.06.02-.07.02-.02,0-.03,0-.04-.02-.07-.09-.15-.16-.23-.2.52-.14.98-.36,1.38-.65.34-.25.6-.54.78-.86.34-.62.52-1.46.52-2.5h-2.32v.47c0,.28,0,.72.02,1.3,0,.05-.02.07-.06.07h-.21s-.05-.03-.05-.08c.02-.85.02-1.27.02-1.28v-.49h-.54c-.51,0-.91,0-1.19.03h-.03s-.05-.03-.06-.09c0-.05,0-.13,0-.23.65.02,1.08.03,1.29.03h.54v-.72c0-.52-.02-.89-.07-1.11.18.03.31.05.38.07.03.01.05.04.05.07,0,.03-.01.07-.04.12-.03.06-.05.34-.05.84v.73h2.32v-.66c0-.1,0-.19,0-.28,0-.43-.02-.77-.07-1.01.15.02.26.04.35.07.05.01.07.04.07.09,0,.03,0,.05-.02.08-.03.05-.04.38-.05,1v.72ZM120.33,106.01l.19-.11s.02,0,.02,0c0,0,.02,0,.02.01.29.26.54.6.75,1.01,0,0,0,.02,0,.03,0,.01,0,.03-.02.04l-.16.09s-.02,0-.03,0c-.02,0-.03,0-.04-.02-.19-.4-.44-.75-.75-1.05ZM120.97,105.63l.17-.1s.02-.01.03-.01c0,0,.02,0,.03.01.33.31.58.65.74,1.02,0,0,0,.02,0,.02,0,.02,0,.03-.03.04l-.15.1s-.01,0-.02,0c-.02,0-.04,0-.04-.02-.19-.41-.43-.76-.73-1.05Z"/>
      <path class="cls-14" d="M126.26,107.83v3.03c0,.45,0,.88.02,1.31,0,.05-.02.07-.06.07h-.22s-.05-.02-.05-.07c.02-.43.02-.86.02-1.29v-2.76c-.67.64-1.6,1.33-2.79,2.05-.02.01-.03.02-.05.02-.02,0-.04-.01-.07-.03-.05-.05-.12-.1-.2-.14,1.09-.62,1.93-1.21,2.52-1.75.62-.57,1.19-1.16,1.69-1.78.18-.22.3-.45.38-.68.16.1.26.17.3.23.02.03.04.05.04.09,0,.04-.02.06-.05.08-.06.03-.2.18-.41.45-.33.41-.69.81-1.08,1.19Z"/>
      <path class="cls-14" d="M130.33,106.77c.52.32.98.66,1.39,1.04.02.02.04.04.04.06,0,.01,0,.03-.01.04-.04.07-.08.12-.12.15-.02.02-.03.03-.04.03-.01,0-.02,0-.04-.02-.47-.45-.96-.82-1.46-1.11.08-.11.13-.17.14-.18.02-.02.04-.04.06-.04,0,0,.02,0,.04.02ZM130.3,111.4c.2-.06.43-.16.69-.29.88-.46,1.66-.96,2.34-1.51.9-.72,1.63-1.44,2.2-2.16,0,.08.03.16.07.26,0,.03.02.05.02.07,0,.04-.02.08-.05.12-.48.58-1.16,1.24-2.05,1.97-.61.5-1.42,1.02-2.44,1.57-.21.11-.34.2-.39.27-.02.03-.05.04-.07.04-.02,0-.05-.01-.07-.04-.09-.09-.17-.2-.23-.31Z"/>
      <path class="cls-14" d="M139.61,108.17h2.32c.12,0,.19,0,.21-.02.02-.01.04-.02.07-.02.03,0,.08.04.15.12.07.08.11.14.11.18,0,.05-.02.07-.06.08-.08.02-.18.07-.31.18-.29.22-.73.48-1.32.79,0,.05-.02.17-.02.35v.2h2.25l1.07-.02s.05.02.05.05v.18s-.02.05-.05.05l-1.07-.02h-2.25v1.75c0,.2-.06.35-.19.43-.11.07-.32.1-.64.1-.1,0-.24,0-.4,0-.05,0-.08,0-.09-.02,0,0-.02-.04-.04-.08-.02-.07-.06-.14-.11-.21.26.03.53.05.82.05.14,0,.24-.02.3-.07.06-.05.09-.14.09-.26v-1.69h-2.27l-1.07.02s-.05-.02-.05-.05v-.18s.02-.05.05-.05l1.07.02h2.27c0-.45-.02-.74-.05-.88.14.04.25.08.33.12.5-.27.94-.57,1.3-.88h-2.46l-1.06.02s-.05-.02-.05-.05v-.17s.02-.05.05-.05l1.06.02ZM137.7,107.25v1.31s-.02.05-.05.05h-.18s-.05-.02-.05-.05l.02-.83v-.27l-.02-.41s.02-.05.05-.05l1.15.02h3.3c.24-.33.45-.7.63-1.11.04-.1.07-.21.09-.33.08.03.17.07.25.12.05.03.08.06.08.09,0,.03-.02.05-.05.06-.04.03-.09.09-.14.19-.18.33-.38.66-.59.97h.42l1.16-.02s.05.02.05.05l-.02.37v.3l.02.83s-.02.05-.05.05h-.18s-.05-.02-.05-.05v-1.31h-5.86ZM138.23,105.8s-.01-.02-.01-.02c0,0,.03-.03.09-.07.05-.03.08-.05.1-.05.01,0,.03,0,.04.03.23.26.46.58.68.95,0,.01.01.02.01.03,0,.01-.04.04-.11.08-.06.03-.1.05-.11.05-.01,0-.02-.01-.04-.04-.14-.3-.36-.62-.66-.96ZM140.14,105.64s-.02-.02-.02-.03.03-.03.08-.07c.05-.03.08-.04.09-.04.01,0,.03,0,.04.03.22.3.4.62.54.95,0,.02.01.03.01.04,0,.01-.04.04-.11.08-.05.03-.09.04-.11.04-.01,0-.03-.01-.04-.04-.13-.35-.3-.67-.5-.95Z"/>
      <path class="cls-14" d="M147.56,107.98h-.17c.27.65.63,1.18,1.09,1.6-.05.03-.11.08-.15.15-.03.04-.05.06-.06.06,0,0-.03-.02-.05-.05-.46-.6-.77-1.16-.95-1.66,0,.96.02,2.04.03,3.22,0,.22,0,.56.02,1,0,.19,0,.29,0,.32,0,.03-.02.05-.05.05h-.21s-.05-.02-.05-.05c.04-.84.06-2.35.07-4.54-.3,1.05-.75,1.98-1.35,2.79-.03.04-.06.06-.07.06-.01,0-.03-.02-.07-.06-.05-.05-.1-.08-.15-.1.36-.45.65-.88.88-1.3.23-.43.43-.93.6-1.49h-.37l-.88.02s-.05-.02-.05-.05v-.16s.02-.05.05-.05l.88.02h.5v-1.36c-.3.09-.64.17-1,.24-.04,0-.06.01-.07.01-.02,0-.05-.03-.09-.09-.03-.04-.08-.09-.14-.13.99-.17,1.69-.38,2.09-.62.11-.06.2-.13.26-.19.08.04.16.09.24.14.04.03.06.05.06.08,0,.04-.04.06-.11.07-.06,0-.13.03-.21.07-.19.11-.45.21-.77.32v1.44h.25l.87-.02s.05.02.05.05v.16s-.02.05-.05.05l-.87-.02ZM151.22,111.22v-.86l-1.79.35c-.34.07-.62.13-.85.18-.05.01-.11.02-.17.04-.03,0-.05.01-.05.01,0,0-.01,0-.02,0-.02,0-.03-.01-.04-.04l-.04-.17v-.02s.01-.03.04-.04l.12-.02c.24-.04.56-.1.96-.17l1.83-.37v-3.51c0-.49-.02-.83-.06-1.03.13,0,.23.02.3.03.06.01.09.03.09.06l-.03.13c-.03.12-.05.38-.05.79v3.47l1.05-.23s.01,0,.02,0c.02,0,.03.02.04.05l.04.17s0,.01,0,.02c0,.02-.01.03-.04.04l-.09.02c-.25.04-.59.11-1.02.2v.9l.02,1.39s-.02.05-.05.05h-.19s-.05-.02-.05-.05l.02-1.38ZM149.01,108.23s-.02-.02-.02-.03c0-.01.02-.04.05-.09.04-.05.07-.07.08-.07,0,0,.02,0,.03.01.42.25.81.55,1.16.93.01.02.02.03.02.04,0,.01-.02.05-.07.11-.05.05-.08.08-.09.08,0,0-.02,0-.04-.02-.39-.41-.76-.73-1.12-.95ZM149.22,106.49s-.02-.02-.02-.03.02-.04.05-.08c.05-.06.08-.09.09-.09,0,0,.02,0,.03.01.42.27.8.58,1.13.95.01.02.02.03.02.04,0,.01-.02.05-.07.11-.05.06-.08.09-.09.09,0,0-.02,0-.03-.02-.34-.41-.71-.73-1.11-.98Z"/>
    </g>
    <g class="cls-7">
      <path class="cls-14" d="M44.9,121.19v.34h-2.21v-.34h2.21Z"/>
      <path class="cls-14" d="M48.63,118.46c.51.03,1.03.04,1.56.04h2.88c.18,0,.3-.02.38-.07.02-.01.05-.02.08-.02.03,0,.06,0,.08.03.1.08.17.15.21.2.02.03.03.06.03.1,0,.03-.01.06-.03.08-.08.06-.13.14-.17.25-.37,1.01-.91,1.91-1.62,2.69-.73.81-1.57,1.48-2.51,1.99-.03.01-.05.02-.08.02-.03,0-.06-.01-.08-.04-.06-.07-.12-.12-.19-.15.63-.32,1.17-.66,1.63-1.04.32-.26.65-.58.99-.96.35-.39.67-.83.96-1.34.29-.5.52-1,.67-1.48h-3.24c-.48,0-.95.01-1.41.04h-.04c-.06,0-.1-.04-.1-.11,0-.06,0-.14,0-.23ZM54.51,117.1c.21,0,.38.08.52.23.12.13.18.29.18.47,0,.21-.08.39-.23.53-.14.12-.29.18-.47.18-.21,0-.39-.08-.53-.23-.12-.14-.18-.29-.18-.48,0-.21.08-.38.23-.52.14-.12.29-.18.48-.18ZM54.51,117.3c-.14,0-.27.06-.37.17-.09.1-.13.21-.13.33,0,.15.06.27.17.37.1.09.21.13.33.13.14,0,.26-.06.36-.17.09-.1.13-.21.13-.34,0-.14-.06-.26-.17-.36-.1-.09-.21-.13-.33-.13Z"/>
      <path class="cls-14" d="M61.03,122.54h-3.82v.61c0,.05-.02.08-.07.08h-.18s-.06-.03-.06-.08c.02-.39.02-.84.02-1.35v-1.82c0-.26,0-.67-.02-1.25,0-.05.03-.08.08-.08.27.01.67.02,1.21.02h1.7c.61,0,1.06,0,1.37-.02.05,0,.08.03.08.08-.01.55-.02.97-.02,1.25v1.81c0,.43,0,.84.02,1.25,0,.06-.02.09-.07.09h-.17s-.07-.03-.07-.09v-.51ZM61.03,122.27v-3.34h-3.82v3.34h3.82Z"/>
      <path class="cls-14" d="M65.97,118.78l2.14-.05c.18,0,.29-.02.34-.05.02,0,.04-.01.05-.01.02,0,.05.01.07.03.04.03.1.08.15.14.03.03.05.07.05.09,0,.02,0,.04-.02.05-.05.04-.1.12-.15.24-.5,1.09-1.01,1.94-1.54,2.56-.77.89-1.63,1.61-2.61,2.17-.01,0-.03,0-.04,0-.02,0-.03,0-.04-.02-.06-.06-.16-.11-.27-.14,1.08-.59,1.99-1.32,2.72-2.2.61-.72,1.12-1.6,1.55-2.62l-2.59.07c-.57.73-1.14,1.34-1.71,1.84-.03.02-.05.03-.07.03,0,0-.02,0-.02,0-.09-.05-.18-.09-.27-.11.91-.73,1.61-1.51,2.11-2.33.22-.36.36-.68.41-.96.13.05.24.12.34.21.03.03.04.05.04.08s-.01.05-.04.07c-.06.05-.14.15-.23.3-.21.35-.33.55-.36.61ZM68.6,117.95l.2-.12s.02-.02.03-.02c0,0,.02,0,.03.02.28.19.56.5.83.91,0,.01.01.02.01.03,0,.01,0,.02-.02.03l-.14.12s-.03.01-.04.01c-.01,0-.02,0-.03-.02-.23-.39-.52-.71-.86-.96ZM69.2,117.51l.15-.13s.03-.02.04-.02.02,0,.02.01c.36.28.64.59.85.93,0,.01,0,.02,0,.03,0,.02,0,.03-.03.04l-.14.11s-.02,0-.03,0c-.02,0-.03,0-.04-.02-.21-.37-.49-.7-.84-.97Z"/>
      <path class="cls-14" d="M71.8,119.67c.33.03.74.04,1.24.04h3.11c.2,0,.32-.01.36-.04.01-.01.03-.02.05-.02.03,0,.05.01.08.03.05.04.1.09.14.14.02.02.02.05.02.07,0,.03-.01.05-.04.07-.05.04-.1.11-.14.21-.69,1.67-1.89,2.92-3.6,3.74-.03.01-.05.02-.07.02s-.04,0-.05-.02c-.05-.05-.13-.09-.23-.14,1.84-.87,3.07-2.13,3.7-3.8h-3.32c-.46,0-.83,0-1.11.02-.02,0-.03,0-.04,0-.04,0-.06-.02-.07-.07-.02-.08-.02-.17-.02-.27ZM72.5,118.01c.29.03.73.04,1.3.04h1.11c.54,0,.96-.01,1.25-.03.01,0,.02,0,.03,0,.03,0,.05.02.05.07v.17s-.02.07-.07.07c-.1,0-.24,0-.41,0-.35-.01-.63-.02-.84-.02h-1.11c-.43,0-.83,0-1.21.02-.05,0-.08-.02-.09-.07,0-.05,0-.13,0-.25Z"/>
      <path class="cls-14" d="M79.36,122.61c.02-.05.06-.12.11-.2.02-.04.04-.05.08-.05.01,0,.02,0,.04,0,1.58.35,2.81.76,3.7,1.25.03.02.05.04.05.07,0,.02,0,.04-.01.05-.02.04-.04.08-.07.12-.02.03-.04.04-.06.04-.02,0-.03,0-.05-.02-.55-.29-1.21-.56-1.97-.8-.61-.19-1.21-.35-1.8-.46ZM79.54,120.06c.04-.11.07-.18.09-.22.01-.02.03-.03.05-.03.01,0,.03,0,.05,0,.81.19,1.59.46,2.33.8.05.02.07.05.07.07,0,.01,0,.03-.01.05l-.07.13s-.03.04-.05.04c-.02,0-.04,0-.07-.02-.75-.37-1.55-.65-2.39-.83ZM80.08,117.93c.05-.11.08-.19.1-.21.02-.04.04-.06.07-.06,0,0,.02,0,.03,0,1.16.25,2.08.54,2.75.86.04.03.06.05.06.07,0,.01,0,.02,0,.04-.03.08-.06.13-.07.17-.01.03-.03.04-.05.04-.02,0-.05-.01-.09-.03-.77-.39-1.7-.68-2.79-.88Z"/>
      <path class="cls-14" d="M85.71,118.4c.52.32.98.66,1.39,1.04.02.02.04.04.04.06,0,.01,0,.03-.01.04-.04.07-.08.12-.12.15-.02.02-.03.03-.04.03s-.02,0-.04-.02c-.47-.45-.96-.82-1.46-1.11.08-.11.13-.17.14-.18.02-.02.04-.04.06-.04,0,0,.02,0,.04.02ZM85.67,123.03c.2-.06.43-.16.69-.29.88-.46,1.66-.96,2.34-1.51.9-.72,1.63-1.44,2.2-2.16,0,.08.03.16.07.26.01.03.02.05.02.07,0,.04-.02.08-.05.12-.48.58-1.16,1.24-2.05,1.97-.61.5-1.42,1.02-2.44,1.57-.21.11-.34.2-.39.27-.02.03-.05.04-.07.04-.02,0-.05-.01-.07-.04-.09-.09-.17-.2-.23-.31Z"/>
      <path class="cls-14" d="M94.86,118.78l2.14-.05c.18,0,.29-.02.34-.05.02,0,.04-.01.05-.01.02,0,.05.01.07.03.04.03.1.08.15.14.03.03.05.07.05.09,0,.02,0,.04-.02.05-.05.04-.1.12-.15.24-.5,1.09-1.01,1.94-1.54,2.56-.77.89-1.63,1.61-2.61,2.17-.01,0-.03,0-.04,0-.02,0-.03,0-.04-.02-.06-.06-.16-.11-.27-.14,1.08-.59,1.99-1.32,2.72-2.2.61-.72,1.12-1.6,1.55-2.62l-2.59.07c-.57.73-1.14,1.34-1.71,1.84-.03.02-.05.03-.07.03,0,0-.02,0-.02,0-.09-.05-.18-.09-.27-.11.91-.73,1.61-1.51,2.11-2.33.22-.36.36-.68.41-.96.13.05.24.12.34.21.03.03.04.05.04.08s-.01.05-.04.07c-.06.05-.14.15-.23.3-.21.35-.33.55-.36.61ZM97.49,117.95l.2-.12s.02-.02.03-.02c0,0,.02,0,.03.02.28.19.56.5.83.91,0,.01.01.02.01.03,0,.01,0,.02-.02.03l-.14.12s-.03.01-.04.01c-.01,0-.02,0-.03-.02-.23-.39-.52-.71-.86-.96ZM98.09,117.51l.15-.13s.03-.02.04-.02.02,0,.02.01c.36.28.64.59.85.93,0,.01,0,.02,0,.03,0,.02,0,.03-.03.04l-.14.11s-.02,0-.03,0c-.02,0-.03,0-.04-.02-.21-.37-.49-.7-.84-.97Z"/>
      <path class="cls-14" d="M102.05,117.99h-.34c-.12.85-.34,1.58-.65,2.21h.95l.63-.02s.05.02.05.05l-.02.86v.63l.02,1.5s-.02.05-.05.05h-.16s-.05-.02-.05-.05v-.34h-1.25v.78s-.02.05-.05.05h-.16s-.05-.02-.05-.05l.02-1.59v-1.63c-.17.31-.37.61-.6.89-.03.04-.05.06-.07.06-.01,0-.04-.01-.08-.03-.04-.02-.1-.03-.16-.03.41-.47.74-.99.97-1.55.21-.51.37-1.11.46-1.79h-.3l-.81.02s-.05-.02-.05-.05v-.17s.02-.05.05-.05l.81.02h.88l.82-.02s.05.02.05.05v.17s-.02.05-.05.05l-.82-.02ZM101.17,120.42v2.27h1.25v-2.27h-1.25ZM106.31,120.54h-.12v2.18l.02,1.42s-.02.05-.05.05h-.2s-.05-.02-.05-.05l.02-1.42v-2.18h-1.45c-.05,1-.2,1.76-.46,2.29-.23.47-.61.92-1.14,1.33-.03.02-.05.04-.07.04s-.04-.02-.08-.06c-.04-.04-.1-.07-.17-.09.63-.43,1.07-.93,1.3-1.51.2-.48.32-1.15.36-2h-.02l-1.11.02s-.05-.02-.05-.05v-.16s.02-.05.05-.05l1.11.02h.02c.01-.33.02-.6.02-.8v-1.66c-.27,0-.5,0-.69.01-.03,0-.08,0-.15,0h-.04s-.05-.02-.05-.05v-.16s.02-.05.05-.05l1.05.02h1.7l1.05-.02s.05.02.05.05v.16s-.02.05-.05.05l-.98-.02v2.46h.12l1.11-.02s.05.02.05.05v.16s-.02.05-.05.05l-1.11-.02ZM104.51,119.51c0,.21,0,.48-.02.81h1.44v-2.46h-1.42v1.65Z"/>
      <path class="cls-14" d="M108.76,124.02c.91-.29,1.58-.65,2.01-1.07.37-.37.61-.84.71-1.4h-.93c-.35.01-.64.02-.87.02-.05,0-.11,0-.18,0h-.05s-.05-.02-.05-.05v-.18s.02-.05.05-.05l.59.02c.15,0,.32,0,.5,0h.98c.01-.1.02-.24.03-.42,0-.07,0-.13,0-.18,0-.24-.02-.42-.05-.52.11,0,.21.02.29.04.07.02.11.05.11.08,0,.01,0,.04-.02.07-.02.04-.03.07-.03.07-.03.1-.04.23-.05.39-.01.2-.02.36-.03.46h.7c.32-.01.62-.02.89-.03.16,0,.24,0,.25,0,.04,0,.05.02.05.05l-.05.93-.05,1.07v.09c0,.16.03.27.09.32.09.08.37.12.85.12.29,0,.5-.01.62-.04.11-.03.2-.07.27-.13.11-.11.17-.41.18-.91.03.04.08.08.15.13.06.03.09.06.09.09,0,0,0,.02,0,.05-.04.44-.13.72-.28.85-.16.13-.5.19-1.02.19s-.84-.05-1-.15c-.13-.08-.2-.24-.2-.48v-.09l.08-1.84-1.65.02c-.12.71-.42,1.28-.91,1.71-.4.36-.99.67-1.77.95-.04.01-.06.02-.07.02-.02,0-.04-.02-.07-.07-.04-.05-.09-.1-.15-.13ZM109.23,118.3v1.22s-.02.05-.05.05h-.17s-.05-.02-.05-.05l.02-.79v-.24l-.02-.38s.02-.05.05-.05l1.15.02h1.84v-.41c0-.19-.02-.36-.05-.52.12.01.22.02.31.04.05,0,.08.03.08.05,0,.02-.02.07-.05.14-.03.07-.04.17-.04.3v.38h1.98l1.14-.02s.05.02.05.05l-.02.34v.28l.02.79s-.02.05-.05.05h-.17s-.05-.02-.05-.05v-1.22h-5.93ZM109.35,120.52c.89-.26,1.47-.75,1.72-1.46.07-.2.1-.37.1-.5.12.02.21.05.29.09.04.02.06.04.06.07,0,.02-.02.06-.07.12-.02.03-.07.14-.14.32-.27.72-.81,1.22-1.63,1.52-.04.01-.07.02-.08.02-.02,0-.05-.02-.09-.07-.04-.05-.09-.08-.15-.11ZM112.9,119.32v.35c0,.22.03.34.09.38.1.07.34.1.73.1.36,0,.6-.06.72-.18s.18-.35.18-.71c.05.05.1.09.14.12.06.03.09.06.09.09,0,0,0,.02,0,.05-.03.3-.11.52-.25.65-.17.14-.46.21-.88.21-.47,0-.76-.05-.89-.14-.08-.06-.12-.14-.15-.23-.02-.07-.03-.19-.03-.34v-.35c0-.38-.02-.64-.05-.79.1,0,.2.02.3.04.05.01.08.03.08.05,0,.02-.02.07-.05.14-.03.07-.04.25-.04.54Z"/>
      <path class="cls-14" d="M116.89,120.2c.79-.34,1.5-.78,2.13-1.32.54-.46.97-.96,1.28-1.48.08-.13.13-.27.16-.4.11.02.2.04.27.06.06.02.09.05.09.09,0,.02-.01.04-.04.05-.03.01-.06.03-.08.05.53.73,1.12,1.34,1.78,1.82.55.41,1.2.75,1.94,1.05-.06.04-.12.08-.16.14-.04.05-.07.07-.08.07-.01,0-.04,0-.07-.03-1.55-.69-2.72-1.64-3.53-2.86-.44.69-.97,1.29-1.6,1.79-.48.38-1.07.75-1.77,1.1-.04.02-.06.03-.07.03-.02,0-.04-.02-.08-.07-.04-.04-.1-.08-.18-.1ZM122.55,121.53h-2.43c-.3.78-.62,1.48-.95,2.11,1.27-.1,2.38-.21,3.33-.33-.24-.3-.54-.64-.88-1.02,0-.01-.02-.02-.02-.03,0-.01.03-.04.08-.08.05-.04.08-.06.1-.06,0,0,.02,0,.03.02.54.56,1.07,1.2,1.58,1.94,0,.01.01.02.01.03,0,.02-.03.05-.1.11-.06.05-.09.07-.1.07,0,0-.02-.01-.04-.03-.11-.18-.29-.42-.51-.74-1.27.17-2.78.32-4.51.45-.18.02-.29.04-.33.08-.03.03-.06.04-.08.04-.03,0-.05-.02-.07-.07-.02-.05-.05-.16-.09-.32.08,0,.17,0,.26,0,.16,0,.36,0,.62-.02l.41-.02c.4-.75.72-1.47.95-2.13h-1.06l-1.14.02s-.05-.02-.05-.05v-.18s.02-.05.05-.05l1.14.02h3.79l1.14-.02s.05.02.05.05v.18s-.02.05-.05.05l-1.14-.02ZM121.32,120.07h-1.35l-.97.02s-.05-.02-.05-.05v-.18s.02-.05.05-.05l.97.02h1.35l.97-.02s.05.02.05.05v.18s-.02.05-.05.05l-.97-.02Z"/>
    </g>
    <g>
      <rect class="cls-1" x="191.18" y="64.56" width="11.08" height="11.08" rx="1.27" ry="1.27"/>
      <rect class="cls-2" x="192.77" y="66.14" width="7.91" height="7.91" rx=".79" ry=".79"/>
      <rect class="cls-1" x="194.35" y="67.72" width="4.75" height="4.75" rx=".55" ry=".55"/>
      <rect class="cls-1" x="226" y="64.56" width="11.08" height="11.08" rx="1.27" ry="1.27"/>
      <rect class="cls-2" x="227.59" y="66.14" width="7.91" height="7.91" rx=".79" ry=".79"/>
      <rect class="cls-1" x="229.17" y="67.72" width="4.75" height="4.75" rx=".55" ry=".55"/>
      <rect class="cls-1" x="191.18" y="99.38" width="11.08" height="11.08" rx="1.27" ry="1.27"/>
      <rect class="cls-2" x="192.77" y="100.96" width="7.91" height="7.91" rx=".79" ry=".79"/>
      <rect class="cls-1" x="194.35" y="102.54" width="4.75" height="4.75" rx=".55" ry=".55"/>
      <rect class="cls-1" x="207.01" y="64.56" width="1.58" height="1.58" rx=".05" ry=".05"/>
      <rect class="cls-1" x="210.18" y="64.56" width="1.58" height="1.58" rx=".05" ry=".05"/>
      <rect class="cls-1" x="211.76" y="64.56" width="1.58" height="1.58" rx=".05" ry=".05"/>
      <rect class="cls-1" x="213.34" y="64.56" width="1.58" height="1.58" rx=".05" ry=".05"/>
      <rect class="cls-1" x="216.51" y="64.56" width="1.58" height="1.58" rx=".05" ry=".05"/>
      <rect class="cls-1" x="218.09" y="64.56" width="1.58" height="1.58" rx=".05" ry=".05"/>
      <rect class="cls-1" x="219.67" y="64.56" width="1.58" height="1.58" rx=".05" ry=".05"/>
      <rect class="cls-1" x="221.25" y="64.56" width="1.58" height="1.58" rx=".05" ry=".05"/>
      <rect class="cls-1" x="210.18" y="66.14" width="1.58" height="1.58" rx=".05" ry=".05"/>
      <rect class="cls-1" x="214.92" y="66.14" width="1.58" height="1.58" rx=".05" ry=".05"/>
      <rect class="cls-1" x="216.51" y="66.14" width="1.58" height="1.58" rx=".05" ry=".05"/>
      <rect class="cls-1" x="218.09" y="66.14" width="1.58" height="1.58" rx=".05" ry=".05"/>
      <rect class="cls-1" x="219.67" y="66.14" width="1.58" height="1.58" rx=".05" ry=".05"/>
      <rect class="cls-1" x="222.84" y="66.14" width="1.58" height="1.58" rx=".05" ry=".05"/>
      <rect class="cls-1" x="203.84" y="67.72" width="1.58" height="1.58"/>
      <rect class="cls-1" x="205.43" y="67.72" width="1.58" height="1.58" rx=".05" ry=".05"/>
      <rect class="cls-1" x="207.01" y="67.72" width="1.58" height="1.58" rx=".05" ry=".05"/>
      <rect class="cls-1" x="208.59" y="67.72" width="1.58" height="1.58" rx=".05" ry=".05"/>
      <rect class="cls-1" x="210.18" y="67.72" width="1.58" height="1.58" rx=".05" ry=".05"/>
      <rect class="cls-1" x="211.76" y="67.72" width="1.58" height="1.58" rx=".05" ry=".05"/>
      <rect class="cls-1" x="213.34" y="67.72" width="1.58" height="1.58" rx=".05" ry=".05"/>
      <rect class="cls-1" x="219.67" y="67.72" width="1.58" height="1.58" rx=".05" ry=".05"/>
      <rect class="cls-1" x="222.84" y="67.72" width="1.58" height="1.58" rx=".05" ry=".05"/>
      <rect class="cls-1" x="203.84" y="69.3" width="1.58" height="1.58"/>
      <rect class="cls-1" x="205.43" y="69.3" width="1.58" height="1.58" rx=".05" ry=".05"/>
      <rect class="cls-1" x="211.76" y="69.3" width="1.58" height="1.58" rx=".05" ry=".05"/>
      <rect class="cls-1" x="214.92" y="69.3" width="1.58" height="1.58" rx=".05" ry=".05"/>
      <rect class="cls-1" x="218.09" y="69.3" width="1.58" height="1.58" rx=".05" ry=".05"/>
      <rect class="cls-1" x="221.25" y="69.3" width="1.58" height="1.58" rx=".05" ry=".05"/>
      <rect class="cls-1" x="210.18" y="70.89" width="1.58" height="1.58" rx=".05" ry=".05"/>
      <rect class="cls-1" x="211.76" y="70.89" width="1.58" height="1.58" rx=".05" ry=".05"/>
      <rect class="cls-1" x="213.34" y="70.89" width="1.58" height="1.58" rx=".05" ry=".05"/>
      <rect class="cls-1" x="216.51" y="70.89" width="1.58" height="1.58" rx=".05" ry=".05"/>
      <rect class="cls-1" x="218.09" y="70.89" width="1.58" height="1.58" rx=".05" ry=".05"/>
      <rect class="cls-1" x="219.67" y="70.89" width="1.58" height="1.58" rx=".05" ry=".05"/>
      <rect class="cls-1" x="221.25" y="70.89" width="1.58" height="1.58" rx=".05" ry=".05"/>
      <rect class="cls-1" x="207.01" y="72.47" width="1.58" height="1.58" rx=".05" ry=".05"/>
      <rect class="cls-1" x="210.18" y="72.47" width="1.58" height="1.58" rx=".05" ry=".05"/>
      <rect class="cls-1" x="211.76" y="72.47" width="1.58" height="1.58" rx=".05" ry=".05"/>
      <rect class="cls-1" x="218.09" y="72.47" width="1.58" height="1.58" rx=".05" ry=".05"/>
      <rect class="cls-1" x="219.67" y="72.47" width="1.58" height="1.58" rx=".05" ry=".05"/>
      <rect class="cls-1" x="222.84" y="72.47" width="1.58" height="1.58" rx=".05" ry=".05"/>
      <rect class="cls-1" x="203.84" y="74.05" width="1.58" height="1.58"/>
      <rect class="cls-1" x="207.01" y="74.05" width="1.58" height="1.58"/>
      <rect class="cls-1" x="210.18" y="74.05" width="1.58" height="1.58"/>
      <rect class="cls-1" x="213.34" y="74.05" width="1.58" height="1.58"/>
      <rect class="cls-1" x="216.51" y="74.05" width="1.58" height="1.58"/>
      <rect class="cls-1" x="219.67" y="74.05" width="1.58" height="1.58"/>
      <rect class="cls-1" x="222.84" y="74.05" width="1.58" height="1.58"/>
      <rect class="cls-1" x="205.43" y="75.63" width="1.58" height="1.58" rx=".05" ry=".05"/>
      <rect class="cls-1" x="210.18" y="75.63" width="1.58" height="1.58" rx=".05" ry=".05"/>
      <rect class="cls-1" x="211.76" y="75.63" width="1.58" height="1.58" rx=".05" ry=".05"/>
      <rect class="cls-1" x="216.51" y="75.63" width="1.58" height="1.58" rx=".05" ry=".05"/>
      <rect class="cls-1" x="221.25" y="75.63" width="1.58" height="1.58" rx=".05" ry=".05"/>
      <rect class="cls-1" x="222.84" y="75.63" width="1.58" height="1.58" rx=".05" ry=".05"/>
      <rect class="cls-1" x="195.93" y="77.22" width="1.58" height="1.58"/>
      <rect class="cls-1" x="197.51" y="77.22" width="1.58" height="1.58"/>
      <rect class="cls-1" x="200.68" y="77.22" width="1.58" height="1.58"/>
      <rect class="cls-1" x="202.26" y="77.22" width="1.58" height="1.58"/>
      <rect class="cls-1" x="205.43" y="77.22" width="1.58" height="1.58" rx=".05" ry=".05"/>
      <rect class="cls-1" x="208.59" y="77.22" width="1.58" height="1.58" rx=".05" ry=".05"/>
      <rect class="cls-1" x="210.18" y="77.22" width="1.58" height="1.58" rx=".05" ry=".05"/>
      <rect class="cls-1" x="219.67" y="77.22" width="1.58" height="1.58" rx=".05" ry=".05"/>
      <rect class="cls-1" x="221.25" y="77.22" width="1.58" height="1.58" rx=".05" ry=".05"/>
      <rect class="cls-1" x="222.84" y="77.22" width="1.58" height="1.58" rx=".05" ry=".05"/>
      <rect class="cls-1" x="230.75" y="77.22" width="1.58" height="1.58"/>
      <rect class="cls-1" x="232.33" y="77.22" width="1.58" height="1.58"/>
      <rect class="cls-1" x="192.77" y="78.8" width="1.58" height="1.58" rx=".05" ry=".05"/>
      <rect class="cls-1" x="194.35" y="78.8" width="1.58" height="1.58" rx=".05" ry=".05"/>
      <rect class="cls-1" x="199.1" y="78.8" width="1.58" height="1.58" rx=".05" ry=".05"/>
      <rect class="cls-1" x="202.26" y="78.8" width="1.58" height="1.58" rx=".05" ry=".05"/>
      <rect class="cls-1" x="208.59" y="78.8" width="1.58" height="1.58" rx=".05" ry=".05"/>
      <rect class="cls-1" x="210.18" y="78.8" width="1.58" height="1.58" rx=".05" ry=".05"/>
      <rect class="cls-1" x="214.92" y="78.8" width="1.58" height="1.58" rx=".05" ry=".05"/>
      <rect class="cls-1" x="218.09" y="78.8" width="1.58" height="1.58" rx=".05" ry=".05"/>
      <rect class="cls-1" x="222.84" y="78.8" width="1.58" height="1.58" rx=".05" ry=".05"/>
      <rect class="cls-1" x="224.42" y="78.8" width="1.58" height="1.58" rx=".05" ry=".05"/>
      <rect class="cls-1" x="226" y="78.8" width="1.58" height="1.58" rx=".05" ry=".05"/>
      <rect class="cls-1" x="229.17" y="78.8" width="1.58" height="1.58" rx=".05" ry=".05"/>
      <rect class="cls-1" x="232.33" y="78.8" width="1.58" height="1.58" rx=".05" ry=".05"/>
      <rect class="cls-1" x="233.92" y="78.8" width="1.58" height="1.58" rx=".05" ry=".05"/>
      <rect class="cls-1" x="191.18" y="80.38" width="1.58" height="1.58" rx=".05" ry=".05"/>
      <rect class="cls-1" x="192.77" y="80.38" width="1.58" height="1.58" rx=".05" ry=".05"/>
      <rect class="cls-1" x="197.51" y="80.38" width="1.58" height="1.58" rx=".05" ry=".05"/>
      <rect class="cls-1" x="200.68" y="80.38" width="1.58" height="1.58"/>
      <rect class="cls-1" x="203.84" y="80.38" width="1.58" height="1.58" rx=".05" ry=".05"/>
      <rect class="cls-1" x="205.43" y="80.38" width="1.58" height="1.58" rx=".05" ry=".05"/>
      <rect class="cls-1" x="213.34" y="80.38" width="1.58" height="1.58" rx=".05" ry=".05"/>
      <rect class="cls-1" x="214.92" y="80.38" width="1.58" height="1.58" rx=".05" ry=".05"/>
      <rect class="cls-1" x="218.09" y="80.38" width="1.58" height="1.58" rx=".05" ry=".05"/>
      <rect class="cls-1" x="224.42" y="80.38" width="1.58" height="1.58" rx=".05" ry=".05"/>
      <rect class="cls-1" x="226" y="80.38" width="1.58" height="1.58" rx=".05" ry=".05"/>
      <rect class="cls-1" x="229.17" y="80.38" width="1.58" height="1.58" rx=".05" ry=".05"/>
      <rect class="cls-1" x="230.75" y="80.38" width="1.58" height="1.58" rx=".05" ry=".05"/>
      <rect class="cls-1" x="202.26" y="81.97" width="1.58" height="1.58" rx=".05" ry=".05"/>
      <rect class="cls-1" x="207.01" y="81.97" width="1.58" height="1.58" rx=".05" ry=".05"/>
      <rect class="cls-1" x="208.59" y="81.97" width="1.58" height="1.58" rx=".05" ry=".05"/>
      <rect class="cls-1" x="211.76" y="81.97" width="1.58" height="1.58" rx=".05" ry=".05"/>
      <rect class="cls-1" x="213.34" y="81.97" width="1.58" height="1.58" rx=".05" ry=".05"/>
      <rect class="cls-1" x="214.92" y="81.97" width="1.58" height="1.58" rx=".05" ry=".05"/>
      <rect class="cls-1" x="218.09" y="81.97" width="1.58" height="1.58" rx=".05" ry=".05"/>
      <rect class="cls-1" x="227.59" y="81.97" width="1.58" height="1.58" rx=".05" ry=".05"/>
      <rect class="cls-1" x="229.17" y="81.97" width="1.58" height="1.58" rx=".05" ry=".05"/>
      <rect class="cls-1" x="235.5" y="81.97" width="1.58" height="1.58" rx=".05" ry=".05"/>
      <rect class="cls-1" x="192.77" y="83.55" width="1.58" height="1.58" rx=".05" ry=".05"/>
      <rect class="cls-1" x="195.93" y="83.55" width="1.58" height="1.58" rx=".05" ry=".05"/>
      <rect class="cls-1" x="200.68" y="83.55" width="1.58" height="1.58"/>
      <rect class="cls-1" x="205.43" y="83.55" width="1.58" height="1.58" rx=".05" ry=".05"/>
      <rect class="cls-1" x="210.18" y="83.55" width="1.58" height="1.58" rx=".05" ry=".05"/>
      <rect class="cls-1" x="218.09" y="83.55" width="1.58" height="1.58" rx=".05" ry=".05"/>
      <rect class="cls-1" x="221.25" y="83.55" width="1.58" height="1.58" rx=".05" ry=".05"/>
      <rect class="cls-1" x="222.84" y="83.55" width="1.58" height="1.58" rx=".05" ry=".05"/>
      <rect class="cls-1" x="224.42" y="83.55" width="1.58" height="1.58" rx=".05" ry=".05"/>
      <rect class="cls-1" x="226" y="83.55" width="1.58" height="1.58" rx=".05" ry=".05"/>
      <rect class="cls-1" x="233.92" y="83.55" width="1.58" height="1.58" rx=".05" ry=".05"/>
      <rect class="cls-1" x="194.35" y="85.13" width="1.58" height="1.58" rx=".05" ry=".05"/>
      <rect class="cls-1" x="195.93" y="85.13" width="1.58" height="1.58" rx=".05" ry=".05"/>
      <rect class="cls-1" x="197.51" y="85.13" width="1.58" height="1.58" rx=".05" ry=".05"/>
      <rect class="cls-1" x="202.26" y="85.13" width="1.58" height="1.58" rx=".05" ry=".05"/>
      <rect class="cls-1" x="208.59" y="85.13" width="1.58" height="1.58" rx=".05" ry=".05"/>
      <rect class="cls-1" x="219.67" y="85.13" width="1.58" height="1.58" rx=".05" ry=".05"/>
      <rect class="cls-1" x="226" y="85.13" width="1.58" height="1.58" rx=".05" ry=".05"/>
      <rect class="cls-1" x="229.17" y="85.13" width="1.58" height="1.58" rx=".05" ry=".05"/>
      <rect class="cls-1" x="232.33" y="85.13" width="1.58" height="1.58" rx=".05" ry=".05"/>
      <rect class="cls-1" x="233.92" y="85.13" width="1.58" height="1.58" rx=".05" ry=".05"/>
      <rect class="cls-1" x="235.5" y="85.13" width="1.58" height="1.58" rx=".05" ry=".05"/>
      <rect class="cls-1" x="191.18" y="86.71" width="1.58" height="1.58" rx=".05" ry=".05"/>
      <rect class="cls-1" x="192.77" y="86.71" width="1.58" height="1.58" rx=".05" ry=".05"/>
      <rect class="cls-1" x="194.35" y="86.71" width="1.58" height="1.58" rx=".05" ry=".05"/>
      <rect class="cls-1" x="200.68" y="86.71" width="1.58" height="1.58"/>
      <rect class="cls-1" x="207.01" y="86.71" width="1.58" height="1.58" rx=".05" ry=".05"/>
      <rect class="cls-1" x="218.09" y="86.71" width="1.58" height="1.58" rx=".05" ry=".05"/>
      <rect class="cls-1" x="221.25" y="86.71" width="1.58" height="1.58" rx=".05" ry=".05"/>
      <rect class="cls-1" x="227.59" y="86.71" width="1.58" height="1.58" rx=".05" ry=".05"/>
      <rect class="cls-1" x="230.75" y="86.71" width="1.58" height="1.58" rx=".05" ry=".05"/>
      <rect class="cls-1" x="233.92" y="86.71" width="1.58" height="1.58" rx=".05" ry=".05"/>
      <rect class="cls-1" x="235.5" y="86.71" width="1.58" height="1.58" rx=".05" ry=".05"/>
      <rect class="cls-1" x="191.18" y="88.3" width="1.58" height="1.58" rx=".05" ry=".05"/>
      <rect class="cls-1" x="194.35" y="88.3" width="1.58" height="1.58" rx=".05" ry=".05"/>
      <rect class="cls-1" x="195.93" y="88.3" width="1.58" height="1.58" rx=".05" ry=".05"/>
      <rect class="cls-1" x="197.51" y="88.3" width="1.58" height="1.58" rx=".05" ry=".05"/>
      <rect class="cls-1" x="199.1" y="88.3" width="1.58" height="1.58" rx=".05" ry=".05"/>
      <rect class="cls-1" x="203.84" y="88.3" width="1.58" height="1.58" rx=".05" ry=".05"/>
      <rect class="cls-1" x="208.59" y="88.3" width="1.58" height="1.58" rx=".05" ry=".05"/>
      <rect class="cls-1" x="219.67" y="88.3" width="1.58" height="1.58" rx=".05" ry=".05"/>
      <rect class="cls-1" x="229.17" y="88.3" width="1.58" height="1.58" rx=".05" ry=".05"/>
      <rect class="cls-1" x="230.75" y="88.3" width="1.58" height="1.58" rx=".05" ry=".05"/>
      <rect class="cls-1" x="232.33" y="88.3" width="1.58" height="1.58" rx=".05" ry=".05"/>
      <rect class="cls-1" x="233.92" y="88.3" width="1.58" height="1.58" rx=".05" ry=".05"/>
      <rect class="cls-1" x="235.5" y="88.3" width="1.58" height="1.58" rx=".05" ry=".05"/>
      <rect class="cls-1" x="191.18" y="89.88" width="1.58" height="1.58" rx=".05" ry=".05"/>
      <rect class="cls-1" x="194.35" y="89.88" width="1.58" height="1.58" rx=".05" ry=".05"/>
      <rect class="cls-1" x="195.93" y="89.88" width="1.58" height="1.58" rx=".05" ry=".05"/>
      <rect class="cls-1" x="199.1" y="89.88" width="1.58" height="1.58" rx=".05" ry=".05"/>
      <rect class="cls-1" x="200.68" y="89.88" width="1.58" height="1.58"/>
      <rect class="cls-1" x="207.01" y="89.88" width="1.58" height="1.58" rx=".05" ry=".05"/>
      <rect class="cls-1" x="216.51" y="89.88" width="1.58" height="1.58" rx=".05" ry=".05"/>
      <rect class="cls-1" x="222.84" y="89.88" width="1.58" height="1.58" rx=".05" ry=".05"/>
      <rect class="cls-1" x="226" y="89.88" width="1.58" height="1.58" rx=".05" ry=".05"/>
      <rect class="cls-1" x="227.59" y="89.88" width="1.58" height="1.58" rx=".05" ry=".05"/>
      <rect class="cls-1" x="229.17" y="89.88" width="1.58" height="1.58" rx=".05" ry=".05"/>
      <rect class="cls-1" x="230.75" y="89.88" width="1.58" height="1.58" rx=".05" ry=".05"/>
      <rect class="cls-1" x="233.92" y="89.88" width="1.58" height="1.58" rx=".05" ry=".05"/>
      <rect class="cls-1" x="235.5" y="89.88" width="1.58" height="1.58" rx=".05" ry=".05"/>
      <rect class="cls-1" x="191.18" y="91.46" width="1.58" height="1.58" rx=".05" ry=".05"/>
      <rect class="cls-1" x="194.35" y="91.46" width="1.58" height="1.58" rx=".05" ry=".05"/>
      <rect class="cls-1" x="199.1" y="91.46" width="1.58" height="1.58" rx=".05" ry=".05"/>
      <rect class="cls-1" x="205.43" y="91.46" width="1.58" height="1.58" rx=".05" ry=".05"/>
      <rect class="cls-1" x="208.59" y="91.46" width="1.58" height="1.58" rx=".05" ry=".05"/>
      <rect class="cls-1" x="210.18" y="91.46" width="1.58" height="1.58" rx=".05" ry=".05"/>
      <rect class="cls-1" x="213.34" y="91.46" width="1.58" height="1.58" rx=".05" ry=".05"/>
      <rect class="cls-1" x="216.51" y="91.46" width="1.58" height="1.58" rx=".05" ry=".05"/>
      <rect class="cls-1" x="218.09" y="91.46" width="1.58" height="1.58" rx=".05" ry=".05"/>
      <rect class="cls-1" x="219.67" y="91.46" width="1.58" height="1.58" rx=".05" ry=".05"/>
      <rect class="cls-1" x="222.84" y="91.46" width="1.58" height="1.58" rx=".05" ry=".05"/>
      <rect class="cls-1" x="226" y="91.46" width="1.58" height="1.58" rx=".05" ry=".05"/>
      <rect class="cls-1" x="230.75" y="91.46" width="1.58" height="1.58" rx=".05" ry=".05"/>
      <rect class="cls-1" x="191.18" y="93.04" width="1.58" height="1.58" rx=".05" ry=".05"/>
      <rect class="cls-1" x="192.77" y="93.04" width="1.58" height="1.58" rx=".05" ry=".05"/>
      <rect class="cls-1" x="194.35" y="93.04" width="1.58" height="1.58" rx=".05" ry=".05"/>
      <rect class="cls-1" x="195.93" y="93.04" width="1.58" height="1.58" rx=".05" ry=".05"/>
      <rect class="cls-1" x="199.1" y="93.04" width="1.58" height="1.58" rx=".05" ry=".05"/>
      <rect class="cls-1" x="200.68" y="93.04" width="1.58" height="1.58"/>
      <rect class="cls-1" x="203.84" y="93.04" width="1.58" height="1.58" rx=".05" ry=".05"/>
      <rect class="cls-1" x="207.01" y="93.04" width="1.58" height="1.58" rx=".05" ry=".05"/>
      <rect class="cls-1" x="208.59" y="93.04" width="1.58" height="1.58" rx=".05" ry=".05"/>
      <rect class="cls-1" x="210.18" y="93.04" width="1.58" height="1.58" rx=".05" ry=".05"/>
      <rect class="cls-1" x="211.76" y="93.04" width="1.58" height="1.58" rx=".05" ry=".05"/>
      <rect class="cls-1" x="216.51" y="93.04" width="1.58" height="1.58" rx=".05" ry=".05"/>
      <rect class="cls-1" x="219.67" y="93.04" width="1.58" height="1.58" rx=".05" ry=".05"/>
      <rect class="cls-1" x="222.84" y="93.04" width="1.58" height="1.58" rx=".05" ry=".05"/>
      <rect class="cls-1" x="227.59" y="93.04" width="1.58" height="1.58" rx=".05" ry=".05"/>
      <rect class="cls-1" x="230.75" y="93.04" width="1.58" height="1.58" rx=".05" ry=".05"/>
      <rect class="cls-1" x="232.33" y="93.04" width="1.58" height="1.58" rx=".05" ry=".05"/>
      <rect class="cls-1" x="235.5" y="93.04" width="1.58" height="1.58" rx=".05" ry=".05"/>
      <rect class="cls-1" x="191.18" y="94.63" width="1.58" height="1.58" rx=".05" ry=".05"/>
      <rect class="cls-1" x="192.77" y="94.63" width="1.58" height="1.58" rx=".05" ry=".05"/>
      <rect class="cls-1" x="194.35" y="94.63" width="1.58" height="1.58" rx=".05" ry=".05"/>
      <rect class="cls-1" x="195.93" y="94.63" width="1.58" height="1.58" rx=".05" ry=".05"/>
      <rect class="cls-1" x="197.51" y="94.63" width="1.58" height="1.58" rx=".05" ry=".05"/>
      <rect class="cls-1" x="199.1" y="94.63" width="1.58" height="1.58" rx=".05" ry=".05"/>
      <rect class="cls-1" x="202.26" y="94.63" width="1.58" height="1.58" rx=".05" ry=".05"/>
      <rect class="cls-1" x="205.43" y="94.63" width="1.58" height="1.58" rx=".05" ry=".05"/>
      <rect class="cls-1" x="211.76" y="94.63" width="1.58" height="1.58" rx=".05" ry=".05"/>
      <rect class="cls-1" x="213.34" y="94.63" width="1.58" height="1.58" rx=".05" ry=".05"/>
      <rect class="cls-1" x="219.67" y="94.63" width="1.58" height="1.58" rx=".05" ry=".05"/>
      <rect class="cls-1" x="224.42" y="94.63" width="1.58" height="1.58" rx=".05" ry=".05"/>
      <rect class="cls-1" x="226" y="94.63" width="1.58" height="1.58" rx=".05" ry=".05"/>
      <rect class="cls-1" x="227.59" y="94.63" width="1.58" height="1.58" rx=".05" ry=".05"/>
      <rect class="cls-1" x="230.75" y="94.63" width="1.58" height="1.58" rx=".05" ry=".05"/>
      <rect class="cls-1" x="232.33" y="94.63" width="1.58" height="1.58" rx=".05" ry=".05"/>
      <rect class="cls-1" x="191.18" y="96.21" width="1.58" height="1.58" rx=".05" ry=".05"/>
      <rect class="cls-1" x="192.77" y="96.21" width="1.58" height="1.58" rx=".05" ry=".05"/>
      <rect class="cls-1" x="194.35" y="96.21" width="1.58" height="1.58" rx=".05" ry=".05"/>
      <rect class="cls-1" x="195.93" y="96.21" width="1.58" height="1.58" rx=".05" ry=".05"/>
      <rect class="cls-1" x="197.51" y="96.21" width="1.58" height="1.58" rx=".05" ry=".05"/>
      <rect class="cls-1" x="200.68" y="96.21" width="1.58" height="1.58"/>
      <rect class="cls-1" x="208.59" y="96.21" width="1.58" height="1.58" rx=".05" ry=".05"/>
      <rect class="cls-1" x="210.18" y="96.21" width="1.58" height="1.58" rx=".05" ry=".05"/>
      <rect class="cls-1" x="219.67" y="96.21" width="1.58" height="1.58" rx=".05" ry=".05"/>
      <rect class="cls-1" x="222.84" y="96.21" width="1.58" height="1.58" rx=".05" ry=".05"/>
      <rect class="cls-1" x="224.42" y="96.21" width="1.58" height="1.58" rx=".05" ry=".05"/>
      <rect class="cls-1" x="226" y="96.21" width="1.58" height="1.58" rx=".05" ry=".05"/>
      <rect class="cls-1" x="227.59" y="96.21" width="1.58" height="1.58" rx=".05" ry=".05"/>
      <rect class="cls-1" x="229.17" y="96.21" width="1.58" height="1.58" rx=".05" ry=".05"/>
      <rect class="cls-1" x="232.33" y="96.21" width="1.58" height="1.58" rx=".05" ry=".05"/>
      <rect class="cls-1" x="233.92" y="96.21" width="1.58" height="1.58" rx=".05" ry=".05"/>
      <rect class="cls-1" x="235.5" y="96.21" width="1.58" height="1.58" rx=".05" ry=".05"/>
      <rect class="cls-1" x="203.84" y="97.79" width="1.58" height="1.58"/>
      <rect class="cls-1" x="207.01" y="97.79" width="1.58" height="1.58" rx=".05" ry=".05"/>
      <rect class="cls-1" x="211.76" y="97.79" width="1.58" height="1.58" rx=".05" ry=".05"/>
      <rect class="cls-1" x="218.09" y="97.79" width="1.58" height="1.58" rx=".05" ry=".05"/>
      <rect class="cls-1" x="221.25" y="97.79" width="1.58" height="1.58" rx=".05" ry=".05"/>
      <rect class="cls-1" x="222.84" y="97.79" width="1.58" height="1.58" rx=".05" ry=".05"/>
      <rect class="cls-1" x="229.17" y="97.79" width="1.58" height="1.58" rx=".05" ry=".05"/>
      <rect class="cls-1" x="230.75" y="97.79" width="1.58" height="1.58" rx=".05" ry=".05"/>
      <rect class="cls-1" x="232.33" y="97.79" width="1.58" height="1.58" rx=".05" ry=".05"/>
      <rect class="cls-1" x="233.92" y="97.79" width="1.58" height="1.58" rx=".05" ry=".05"/>
      <rect class="cls-1" x="203.84" y="99.38" width="1.58" height="1.58"/>
      <rect class="cls-1" x="207.01" y="99.38" width="1.58" height="1.58" rx=".05" ry=".05"/>
      <rect class="cls-1" x="210.18" y="99.38" width="1.58" height="1.58" rx=".05" ry=".05"/>
      <rect class="cls-1" x="213.34" y="99.38" width="1.58" height="1.58" rx=".05" ry=".05"/>
      <rect class="cls-1" x="216.51" y="99.38" width="1.58" height="1.58" rx=".05" ry=".05"/>
      <rect class="cls-1" x="218.09" y="99.38" width="1.58" height="1.58" rx=".05" ry=".05"/>
      <rect class="cls-1" x="221.25" y="99.38" width="1.58" height="1.58" rx=".05" ry=".05"/>
      <rect class="cls-1" x="222.84" y="99.38" width="1.58" height="1.58" rx=".05" ry=".05"/>
      <rect class="cls-1" x="226" y="99.38" width="1.58" height="1.58" rx=".05" ry=".05"/>
      <rect class="cls-1" x="229.17" y="99.38" width="1.58" height="1.58" rx=".05" ry=".05"/>
      <rect class="cls-1" x="232.33" y="99.38" width="1.58" height="1.58" rx=".05" ry=".05"/>
      <rect class="cls-1" x="205.43" y="100.96" width="1.58" height="1.58" rx=".05" ry=".05"/>
      <rect class="cls-1" x="207.01" y="100.96" width="1.58" height="1.58" rx=".05" ry=".05"/>
      <rect class="cls-1" x="208.59" y="100.96" width="1.58" height="1.58" rx=".05" ry=".05"/>
      <rect class="cls-1" x="213.34" y="100.96" width="1.58" height="1.58" rx=".05" ry=".05"/>
      <rect class="cls-1" x="214.92" y="100.96" width="1.58" height="1.58" rx=".05" ry=".05"/>
      <rect class="cls-1" x="216.51" y="100.96" width="1.58" height="1.58" rx=".05" ry=".05"/>
      <rect class="cls-1" x="221.25" y="100.96" width="1.58" height="1.58" rx=".05" ry=".05"/>
      <rect class="cls-1" x="222.84" y="100.96" width="1.58" height="1.58" rx=".05" ry=".05"/>
      <rect class="cls-1" x="229.17" y="100.96" width="1.58" height="1.58" rx=".05" ry=".05"/>
      <rect class="cls-1" x="230.75" y="100.96" width="1.58" height="1.58" rx=".05" ry=".05"/>
      <rect class="cls-1" x="233.92" y="100.96" width="1.58" height="1.58" rx=".05" ry=".05"/>
      <rect class="cls-1" x="203.84" y="102.54" width="1.58" height="1.58"/>
      <rect class="cls-1" x="205.43" y="102.54" width="1.58" height="1.58" rx=".05" ry=".05"/>
      <rect class="cls-1" x="207.01" y="102.54" width="1.58" height="1.58" rx=".05" ry=".05"/>
      <rect class="cls-1" x="213.34" y="102.54" width="1.58" height="1.58" rx=".05" ry=".05"/>
      <rect class="cls-1" x="214.92" y="102.54" width="1.58" height="1.58" rx=".05" ry=".05"/>
      <rect class="cls-1" x="221.25" y="102.54" width="1.58" height="1.58" rx=".05" ry=".05"/>
      <rect class="cls-1" x="222.84" y="102.54" width="1.58" height="1.58" rx=".05" ry=".05"/>
      <rect class="cls-1" x="224.42" y="102.54" width="1.58" height="1.58" rx=".05" ry=".05"/>
      <rect class="cls-1" x="226" y="102.54" width="1.58" height="1.58" rx=".05" ry=".05"/>
      <rect class="cls-1" x="227.59" y="102.54" width="1.58" height="1.58" rx=".05" ry=".05"/>
      <rect class="cls-1" x="229.17" y="102.54" width="1.58" height="1.58" rx=".05" ry=".05"/>
      <rect class="cls-1" x="233.92" y="102.54" width="1.58" height="1.58" rx=".05" ry=".05"/>
      <rect class="cls-1" x="203.84" y="104.12" width="1.58" height="1.58"/>
      <rect class="cls-1" x="210.18" y="104.12" width="1.58" height="1.58" rx=".05" ry=".05"/>
      <rect class="cls-1" x="214.92" y="104.12" width="1.58" height="1.58" rx=".05" ry=".05"/>
      <rect class="cls-1" x="216.51" y="104.12" width="1.58" height="1.58" rx=".05" ry=".05"/>
      <rect class="cls-1" x="218.09" y="104.12" width="1.58" height="1.58" rx=".05" ry=".05"/>
      <rect class="cls-1" x="227.59" y="104.12" width="1.58" height="1.58" rx=".05" ry=".05"/>
      <rect class="cls-1" x="230.75" y="104.12" width="1.58" height="1.58" rx=".05" ry=".05"/>
      <rect class="cls-1" x="232.33" y="104.12" width="1.58" height="1.58" rx=".05" ry=".05"/>
      <rect class="cls-1" x="233.92" y="104.12" width="1.58" height="1.58" rx=".05" ry=".05"/>
      <rect class="cls-1" x="205.43" y="105.71" width="1.58" height="1.58" rx=".05" ry=".05"/>
      <rect class="cls-1" x="210.18" y="105.71" width="1.58" height="1.58" rx=".05" ry=".05"/>
      <rect class="cls-1" x="211.76" y="105.71" width="1.58" height="1.58" rx=".05" ry=".05"/>
      <rect class="cls-1" x="213.34" y="105.71" width="1.58" height="1.58" rx=".05" ry=".05"/>
      <rect class="cls-1" x="216.51" y="105.71" width="1.58" height="1.58" rx=".05" ry=".05"/>
      <rect class="cls-1" x="219.67" y="105.71" width="1.58" height="1.58" rx=".05" ry=".05"/>
      <rect class="cls-1" x="222.84" y="105.71" width="1.58" height="1.58" rx=".05" ry=".05"/>
      <rect class="cls-1" x="224.42" y="105.71" width="1.58" height="1.58" rx=".05" ry=".05"/>
      <rect class="cls-1" x="227.59" y="105.71" width="1.58" height="1.58" rx=".05" ry=".05"/>
      <rect class="cls-1" x="229.17" y="105.71" width="1.58" height="1.58" rx=".05" ry=".05"/>
      <rect class="cls-1" x="230.75" y="105.71" width="1.58" height="1.58" rx=".05" ry=".05"/>
      <rect class="cls-1" x="232.33" y="105.71" width="1.58" height="1.58" rx=".05" ry=".05"/>
      <rect class="cls-1" x="233.92" y="105.71" width="1.58" height="1.58" rx=".05" ry=".05"/>
      <rect class="cls-1" x="235.5" y="105.71" width="1.58" height="1.58" rx=".05" ry=".05"/>
      <rect class="cls-1" x="207.01" y="107.29" width="1.58" height="1.58" rx=".05" ry=".05"/>
      <rect class="cls-1" x="208.59" y="107.29" width="1.58" height="1.58" rx=".05" ry=".05"/>
      <rect class="cls-1" x="210.18" y="107.29" width="1.58" height="1.58" rx=".05" ry=".05"/>
      <rect class="cls-1" x="211.76" y="107.29" width="1.58" height="1.58" rx=".05" ry=".05"/>
      <rect class="cls-1" x="213.34" y="107.29" width="1.58" height="1.58" rx=".05" ry=".05"/>
      <rect class="cls-1" x="221.25" y="107.29" width="1.58" height="1.58" rx=".05" ry=".05"/>
      <rect class="cls-1" x="222.84" y="107.29" width="1.58" height="1.58" rx=".05" ry=".05"/>
      <rect class="cls-1" x="226" y="107.29" width="1.58" height="1.58" rx=".05" ry=".05"/>
      <rect class="cls-1" x="229.17" y="107.29" width="1.58" height="1.58" rx=".05" ry=".05"/>
      <rect class="cls-1" x="232.33" y="107.29" width="1.58" height="1.58" rx=".05" ry=".05"/>
      <rect class="cls-1" x="235.5" y="107.29" width="1.58" height="1.58" rx=".05" ry=".05"/>
      <rect class="cls-1" x="205.43" y="108.87" width="1.58" height="1.58" rx=".05" ry=".05"/>
      <rect class="cls-1" x="210.18" y="108.87" width="1.58" height="1.58" rx=".05" ry=".05"/>
      <rect class="cls-1" x="211.76" y="108.87" width="1.58" height="1.58" rx=".05" ry=".05"/>
      <rect class="cls-1" x="213.34" y="108.87" width="1.58" height="1.58" rx=".05" ry=".05"/>
      <rect class="cls-1" x="216.51" y="108.87" width="1.58" height="1.58" rx=".05" ry=".05"/>
      <rect class="cls-1" x="222.84" y="108.87" width="1.58" height="1.58" rx=".05" ry=".05"/>
      <rect class="cls-1" x="227.59" y="108.87" width="1.58" height="1.58" rx=".05" ry=".05"/>
      <rect class="cls-1" x="229.17" y="108.87" width="1.58" height="1.58" rx=".05" ry=".05"/>
      <rect class="cls-1" x="232.33" y="108.87" width="1.58" height="1.58" rx=".05" ry=".05"/>
      <circle class="cls-2" cx="214.13" cy="87.51" r="3.53"/>
      <g>
        <path class="cls-1" d="M213.54,85.72s.03,0,.05,0c.04,0,.08,0,.13,0,.04,0,.07,0,.11,0,.08,0,.17,0,.25,0,.09,0,.17,0,.26,0,.07,0,.15,0,.22,0,.04,0,.09,0,.13,0,.04,0,.08,0,.12,0,.02,0,.04,0,.07,0,.14,0,.24.03.34.12.06.06.1.14.1.23,0,.01,0,.02,0,.03,0,.01,0,.02,0,.03,0,.01,0,.02,0,.04,0,.04,0,.08,0,.12,0,.03,0,.06,0,.09,0,.09,0,.17,0,.26,0,.04,0,.08,0,.12,0,.13,0,.27,0,.4,0,.03,0,.07,0,.1,0,0,0,.02,0,.03,0,.14,0,.28,0,.42,0,.14,0,.29,0,.43,0,.08,0,.16,0,.24,0,.08,0,.15,0,.23,0,.03,0,.06,0,.08,0,.04,0,.08,0,.11,0,.01,0,.02,0,.03,0,.12-.04.21-.13.3-.07.06-.14.08-.22.08-.01,0-.02,0-.04,0t-.04,0s-.03,0-.04,0c-.04,0-.08,0-.11,0-.04,0-.08,0-.12,0-.08,0-.15,0-.23,0-.09,0-.17,0-.26,0-.18,0-.36,0-.53,0,0-.02,0-.04,0-.07,0-.01,0-.02,0-.04,0-.05,0-.1.01-.15,0-.01,0-.02,0-.03.05-.3.19-.57.36-.82.13-.19.2-.38.16-.61-.03-.09-.07-.16-.15-.22-.07-.03-.14-.04-.21-.02-.09.03-.14.09-.19.16-.01.02-.03.04-.04.06,0,.01-.01.02-.02.03-.04.05-.08.1-.11.15-.07.1-.15.19-.22.29-.01.02-.02.03-.04.05,0,0-.01.02-.02.03t-.02.03s-.01.02-.02.02t-.01.02h-.01c0-.27,0-.54,0-.81,0-.13,0-.25,0-.38,0-.11,0-.22,0-.33,0-.06,0-.12,0-.17,0-.05,0-.11,0-.16,0-.02,0-.04,0-.06,0-.14,0-.25.09-.36.11-.11.24-.12.39-.12Z"/>
        <path class="cls-1" d="M212.87,87.28h.02c0,.14,0,.27,0,.41,0,.06,0,.13,0,.19,0,.06,0,.12,0,.18,0,.02,0,.05,0,.07,0,.18-.04.28-.16.42-.03.03-.05.06-.07.09-.01.02-.03.03-.04.05-.02.03-.03.05-.03.09.01.03.02.04.05.06t.07,0c.05-.04.09-.1.13-.15.06-.08.12-.16.18-.24.06-.08.12-.15.17-.23.06-.09.13-.17.2-.26.05-.07.1-.13.15-.2.05-.07.11-.14.16-.22t.02-.03s.01-.02.02-.02c0,0,.01-.01.02-.02.03-.03.04-.03.08-.03.03,0,.05,0,.07.02.07.1.07.21.05.33-.03.12-.11.23-.18.33-.22.32-.35.68-.36,1.06,0,.14-.06.26-.13.38-.02.04-.04.07-.03.11,0,.01,0,.02.01.03q.06.01.13,0s.02-.04.02-.06c.01-.03.03-.06.05-.09,0,0,0-.02.01-.02,0-.01.02-.03.02-.04.02-.03.03-.06.05-.09h.8c-.02.05-.03.09-.06.14,0,.01-.01.02-.02.04-.02.03-.04.07-.07.1-.04.09-.04.18-.04.27,0,.01,0,.02,0,.03,0,0,0,.02,0,.03,0,.04-.02.05-.05.07t-.08,0s-.02,0-.02,0c-.03,0-.05,0-.08,0-.02,0-.04,0-.06,0-.05,0-.1,0-.15,0-.05,0-.11,0-.16,0-.09,0-.18,0-.27,0-.1,0-.21,0-.31,0-.1,0-.2,0-.3,0-.04,0-.08,0-.13,0-.05,0-.1,0-.15,0-.02,0-.04,0-.05,0-.02,0-.05,0-.07,0t-.04,0s-.03,0-.06-.02c-.02-.04-.03-.07-.03-.11,0-.01,0-.02,0-.04,0-.01,0-.03,0-.04,0-.01,0-.03,0-.04,0-.04,0-.07,0-.11,0-.02,0-.05,0-.07,0-.07,0-.14,0-.22,0-.08,0-.17,0-.25,0-.06,0-.13,0-.19,0-.04,0-.08,0-.12q0-.39.08-.54s0-.02.01-.02c.01-.02.03-.05.04-.07,0,0,0-.01.01-.02.03-.05.06-.1.09-.15,0-.02.02-.03.03-.05.07-.12.14-.23.21-.35.04-.07.08-.13.12-.2,0-.01.02-.03.02-.04.02-.03.03-.05.05-.08,0-.01.01-.02.02-.03t.02-.03l.02-.02Z"/>
        <path class="cls-1" d="M214.28,84.93s.03,0,.05,0c.05,0,.09,0,.14,0,.04,0,.08,0,.12,0,.09,0,.18,0,.27,0,.09,0,.19,0,.28,0,.08,0,.16,0,.24,0,.05,0,.1,0,.14,0,.05,0,.09,0,.14,0,.02,0,.03,0,.05,0,.11,0,.19.01.29.08.09.09.11.18.12.3,0,.01,0,.02,0,.03,0,.01,0,.02,0,.04,0,.04,0,.08,0,.12,0,.03,0,.06,0,.09,0,.07,0,.14,0,.21,0,.06,0,.11,0,.17,0,0,0,.02,0,.02,0,.02,0,.03,0,.05,0,.15,0,.31,0,.46,0,.14,0,.28,0,.42,0,.14,0,.29,0,.43,0,.08,0,.16,0,.24,0,.08,0,.15,0,.23,0,.03,0,.06,0,.08,0,.04,0,.08,0,.11,0,.01,0,.02,0,.03,0,.11-.03.21-.11.3-.11.1-.24.1-.38.09-.01,0-.03,0-.04,0-.03,0-.07,0-.1,0,0-.01,0-.02,0-.04,0-.3,0-.6,0-.9,0-.15,0-.29,0-.44,0-.13,0-.25,0-.38,0-.07,0-.13,0-.2,0-.06,0-.13,0-.19,0-.02,0-.05,0-.07q0-.16-.04-.32s0-.01,0-.02c-.05-.12-.16-.21-.27-.26-.09-.04-.18-.05-.27-.05-.01,0-.02,0-.03,0-.04,0-.07,0-.11,0-.03,0-.05,0-.08,0-.07,0-.13,0-.2,0-.07,0-.13,0-.2,0-.13,0-.26,0-.4,0,0-.05,0-.1,0-.15t0-.04c0-.12.01-.22.08-.32.1-.1.2-.11.34-.11ZM215.31,85.11s0,.06.02.09c.04.03.07.03.12.04.13.02.23.07.31.18.05.08.06.15.07.24,0,.04.02.06.04.09t.08.01s.05-.04.07-.08c.02-.13-.05-.27-.13-.37-.1-.13-.25-.22-.42-.25-.07,0-.11,0-.16.06ZM215.32,85.36s-.02.03-.03.07c.02.04.03.06.07.08.02,0,.03,0,.05,0,.06.01.08.03.12.07.02.03.02.06.03.1t.03.07s.06.03.11.02t.05-.06c0-.11-.03-.18-.09-.27-.05-.06-.14-.11-.22-.12q-.06,0-.11.02Z"/>
      </g>
    </g>
    <rect class="cls-3" width="257.95" height="155.91"/>
    <text class="cls-10" transform="translate(33.19 146.15)"><tspan x="0" y="0">okamoto@tarky342.com</tspan></text>
  </g>
  <rect class="cls-3" width="257.95" height="155.91"/>
</svg>